<svg width="36" height="36" viewBox="0 0 36 36" fill="none" xmlns="http://www.w3.org/2000/svg">
<path d="M34.005 0.135254H1.995C1.46711 0.139107 0.961947 0.346665 0.58866 0.713088C0.215372 1.07951 0.00392502 1.57538 0 2.09356V33.5149C0.00392502 34.0331 0.215372 34.5289 0.58866 34.8953C0.961947 35.2618 1.46711 35.4693 1.995 35.4732H19.23V21.8092H14.55V16.4643H19.23V12.533C19.23 7.96849 22.065 5.48011 26.235 5.48011C27.63 5.48011 29.025 5.48011 30.42 5.68625V10.4421H27.555C25.29 10.4421 24.855 11.5023 24.855 13.0483V16.4496H30.255L29.55 21.7945H24.855V35.4732H34.005C34.5329 35.4693 35.0381 35.2618 35.4113 34.8953C35.7846 34.5289 35.9961 34.0331 36 33.5149V2.09356C35.9961 1.57538 35.7846 1.07951 35.4113 0.713088C35.0381 0.346665 34.5329 0.139107 34.005 0.135254Z" fill="black"/>
</svg>
