<svg width="37" height="36" viewBox="0 0 37 36" fill="none" xmlns="http://www.w3.org/2000/svg">
<path d="M36.1718 10.5313C36.1515 9.03315 35.8657 7.54989 35.3274 6.14787C34.8606 4.96528 34.1476 3.89128 33.234 2.99448C32.3204 2.09768 31.2263 1.39781 30.0216 0.939588C28.6117 0.420059 27.1221 0.139141 25.6165 0.108795C23.6779 0.0237371 23.0633 0 18.1423 0C13.2213 0 12.5906 1.32641e-07 10.6661 0.108795C9.16115 0.139364 7.67234 0.420279 6.26306 0.939588C5.05812 1.39749 3.96383 2.09725 3.05018 2.99409C2.13654 3.89093 1.42368 4.9651 0.957192 6.14787C0.426869 7.53081 0.141308 8.99257 0.112848 10.47C0.0261968 12.3749 0 12.9782 0 17.8087C0 22.6391 -1.5014e-08 23.2563 0.112848 25.1473C0.143075 26.6269 0.42721 28.0868 0.957192 29.4734C1.42446 30.6558 2.13786 31.7296 3.0518 32.626C3.96575 33.5225 5.06015 34.2219 6.26507 34.6797C7.6705 35.2201 9.15957 35.5211 10.6682 35.5698C12.6087 35.6549 13.2234 35.6806 18.1443 35.6806C23.0653 35.6806 23.696 35.6806 25.6205 35.5698C27.1261 35.5407 28.6157 35.2605 30.0256 34.741C31.23 34.2823 32.3239 33.5822 33.2374 32.6855C34.1509 31.7888 34.8641 30.715 35.3315 29.5327C35.8615 28.1481 36.1456 26.6883 36.1758 25.2067C36.2625 23.3038 36.2887 22.7005 36.2887 17.868C36.2846 13.0375 36.2846 12.4243 36.1718 10.5313ZM18.1302 26.9434C12.9836 26.9434 8.81423 22.8508 8.81423 17.7988C8.81423 12.7468 12.9836 8.6541 18.1302 8.6541C20.601 8.6541 22.9705 9.61756 24.7176 11.3325C26.4647 13.0475 27.4462 15.3735 27.4462 17.7988C27.4462 20.2241 26.4647 22.5501 24.7176 24.265C22.9705 25.98 20.601 26.9434 18.1302 26.9434ZM27.817 10.4482C27.5317 10.4485 27.2491 10.3935 26.9854 10.2864C26.7217 10.1794 26.4821 10.0223 26.2804 9.82424C26.0786 9.62618 25.9186 9.39101 25.8095 9.13218C25.7004 8.87335 25.6444 8.59595 25.6447 8.31585C25.6447 8.03595 25.7008 7.7588 25.81 7.50021C25.9191 7.24161 26.079 7.00665 26.2806 6.80874C26.4823 6.61082 26.7216 6.45382 26.9851 6.34671C27.2485 6.2396 27.5309 6.18447 27.816 6.18447C28.1011 6.18447 28.3835 6.2396 28.6469 6.34671C28.9104 6.45382 29.1497 6.61082 29.3514 6.80874C29.553 7.00665 29.7129 7.24161 29.822 7.50021C29.9312 7.7588 29.9873 8.03595 29.9873 8.31585C29.9873 9.49479 29.016 10.4482 27.817 10.4482Z" fill="black"/>
<path d="M18.1301 23.7392C21.4722 23.7392 24.1815 21.0797 24.1815 17.7991C24.1815 14.5184 21.4722 11.8589 18.1301 11.8589C14.7879 11.8589 12.0786 14.5184 12.0786 17.7991C12.0786 21.0797 14.7879 23.7392 18.1301 23.7392Z" fill="black"/>
</svg>
