<svg width="36" height="36" viewBox="0 0 36 36" fill="none" xmlns="http://www.w3.org/2000/svg">
<path fill-rule="evenodd" clip-rule="evenodd" d="M4.45188e-07 3.08758C4.45188e-07 2.30458 0.316875 1.55364 0.880917 0.999973C1.44496 0.446305 2.20996 0.135258 3.00764 0.135258H32.9891C33.3844 0.134624 33.7759 0.210532 34.1413 0.358636C34.5067 0.50674 34.8387 0.724132 35.1184 0.998364C35.3981 1.2726 35.6199 1.59829 35.7712 1.95678C35.9225 2.31528 36.0002 2.69955 36 3.08758V32.5176C36.0004 32.9058 35.9229 33.2901 35.7718 33.6488C35.6208 34.0075 35.3992 34.3334 35.1197 34.6079C34.8402 34.8824 34.5083 35.1001 34.143 35.2486C33.7776 35.3971 33.3861 35.4734 32.9907 35.4732H3.00764C2.61253 35.4732 2.2213 35.3968 1.85629 35.2483C1.49128 35.0998 1.15964 34.8822 0.880338 34.6079C0.601032 34.3336 0.379525 34.0079 0.228473 33.6495C0.0774217 33.2912 -0.00021452 32.9071 4.45188e-07 32.5192V3.08758ZM14.2495 13.6086H19.1242V16.0116C19.8278 14.6302 21.6278 13.387 24.3327 13.387C29.5184 13.387 30.7473 16.1385 30.7473 21.187V30.5387H25.4995V22.3371C25.4995 19.4619 24.7958 17.8396 23.0089 17.8396C20.5298 17.8396 19.4989 19.5888 19.4989 22.3371V30.5387H14.2495V13.6086ZM5.24945 30.3187H10.4989V13.387H5.24945V30.3171V30.3187ZM11.25 7.86462C11.2599 8.30582 11.1799 8.74452 11.0148 9.15496C10.8496 9.56541 10.6026 9.93934 10.2882 10.2548C9.97382 10.5703 9.59842 10.8209 9.18402 10.992C8.76962 11.1632 8.32457 11.2513 7.875 11.2513C7.42543 11.2513 6.98038 11.1632 6.56598 10.992C6.15158 10.8209 5.77618 10.5703 5.4618 10.2548C5.14743 9.93934 4.90041 9.56541 4.73524 9.15496C4.57008 8.74452 4.4901 8.30582 4.5 7.86462C4.51943 6.99861 4.88354 6.17449 5.51436 5.56876C6.14518 4.96303 6.99255 4.62384 7.875 4.62384C8.75745 4.62384 9.60482 4.96303 10.2356 5.56876C10.8665 6.17449 11.2306 6.99861 11.25 7.86462Z" fill="black"/>
</svg>
