<svg width="243" height="58" viewBox="0 0 243 58" fill="none" xmlns="http://www.w3.org/2000/svg">
<g clip-path="url(#clip0_15_162)">
<path d="M0 42.5654L12.2484 35.6282L0 14.2505V42.5654Z" fill="url(#paint0_linear_15_162)"/>
<path d="M0 14.2506L12.2484 21.281L24.4968 0L0 14.2506Z" fill="url(#paint1_linear_15_162)"/>
<path d="M12.2484 35.6282V21.2809L0 14.2505L12.2484 35.6282Z" fill="#6E6F72"/>
<path d="M12.2484 21.281L24.4968 14.2506V0L12.2484 21.281Z" fill="#6E6F72"/>
<path d="M25.433 0L37.6814 21.281L49.9298 14.2506L25.433 0Z" fill="url(#paint2_linear_15_162)"/>
<path d="M37.6814 35.6282L49.9298 42.5654V14.2505L37.6814 35.6282Z" fill="url(#paint3_linear_15_162)"/>
<path d="M37.6814 21.2809V35.6282L49.9298 14.2505L37.6814 21.2809Z" fill="#99CA3D"/>
<path d="M25.433 14.2506L37.6814 21.281L25.433 0V14.2506Z" fill="#99CA3D"/>
<path d="M24.466 43.8493L12.365 36.5601L0.0308838 43.556L24.3185 57.9999L24.466 43.8493Z" fill="url(#paint4_linear_15_162)"/>
<path d="M0.0308838 43.556L24.466 43.8493L12.365 36.5601L0.0308838 43.556Z" fill="#6E6F72"/>
<path d="M49.8955 43.5524L37.6197 36.5669L25.4639 43.87L49.875 57.6547L49.8955 43.5524Z" fill="#99CA3D"/>
<path d="M37.6197 36.5669L49.875 57.6547L25.4639 43.87L37.6197 36.5669Z" fill="url(#paint5_linear_15_162)"/>
<path d="M113.356 23.6178C113.356 29.0295 109.656 31.7354 102.256 31.7354C100.11 31.7354 98.2616 31.5628 96.7186 31.2246C95.1755 30.8863 93.8999 30.3755 92.8987 29.6956C91.8974 29.0191 91.1602 28.1736 90.6904 27.1658C90.2206 26.158 89.984 24.9742 89.984 23.6143V13.5122H95.467V23.6143C95.467 24.277 95.5561 24.8292 95.7344 25.2744C95.9128 25.7231 96.2454 26.082 96.7323 26.3581C97.2192 26.6377 97.9084 26.8344 98.7966 26.9483C99.6847 27.0657 100.837 27.1243 102.256 27.1243C103.323 27.1243 104.208 27.0622 104.917 26.938C105.627 26.8137 106.196 26.6066 106.622 26.3236C107.047 26.0372 107.355 25.6713 107.541 25.2261C107.726 24.7809 107.818 24.2459 107.818 23.6178V13.5157H113.356V23.6178Z" fill="#010101"/>
<path d="M121.901 31.4384L125.231 26.8309H131.365C131.941 26.8309 132.442 26.8481 132.871 26.8861C132.62 26.5651 132.332 26.1579 132.007 25.6678C131.677 25.1777 131.362 24.7152 131.06 24.2872L127.868 19.5451L119.508 31.4419H112.986L124.404 15.2309C124.778 14.7132 125.248 14.2473 125.817 13.8365C126.386 13.4258 127.103 13.2188 127.974 13.2188C128.845 13.2188 129.503 13.412 130.062 13.7951C130.621 14.1817 131.094 14.658 131.485 15.2309L142.612 31.4419H121.901V31.4384Z" fill="#010101"/>
<path d="M162.631 31.7352C162.274 31.7352 161.925 31.6766 161.578 31.5592C161.232 31.4419 160.844 31.1796 160.419 30.7689L149.505 20.9083V31.4384H144.498V16.57C144.498 15.9798 144.581 15.4725 144.752 15.0445C144.92 14.6131 145.143 14.2679 145.417 13.9987C145.692 13.7295 146.011 13.5362 146.374 13.4085C146.738 13.2843 147.115 13.2222 147.506 13.2222C147.842 13.2222 148.185 13.2808 148.531 13.3982C148.877 13.5155 149.272 13.7778 149.714 14.1885L160.628 24.0491V13.519H165.659V28.3633C165.659 28.9534 165.573 29.4608 165.405 29.8888C165.237 30.3167 165.014 30.6722 164.74 30.9483C164.466 31.2244 164.14 31.4246 163.769 31.5523C163.396 31.6766 163.015 31.7387 162.624 31.7387L162.631 31.7352Z" fill="#010101"/>
<path d="M191.037 13.5122L187.471 18.175H181.106V31.4385H175.596V18.1784H167.236L170.802 13.5157H191.033L191.037 13.5122Z" fill="#010101"/>
<path d="M202.641 13.2188C206.971 13.2188 210.222 13.9608 212.396 15.4449C214.57 16.929 215.657 19.269 215.657 22.4649C215.657 25.6609 214.574 28.0285 212.41 29.5126C210.243 30.9967 206.989 31.7387 202.641 31.7387C198.293 31.7387 195.015 30.9967 192.858 29.5126C190.701 28.032 189.624 25.6816 189.624 22.4649C189.624 19.2483 190.708 16.929 192.871 15.4449C195.039 13.9608 198.293 13.2188 202.641 13.2188ZM202.641 27.0725C204.026 27.0725 205.199 27.0138 206.155 26.8999C207.116 26.7826 207.89 26.5548 208.484 26.2165C209.077 25.8783 209.509 25.4089 209.776 24.8118C210.044 24.2148 210.174 23.4313 210.174 22.4684C210.174 21.5055 210.04 20.722 209.776 20.1249C209.509 19.5278 209.08 19.0619 208.484 18.7306C207.887 18.3992 207.112 18.1783 206.155 18.061C205.199 17.9437 204.026 17.885 202.641 17.885C201.255 17.885 200.086 17.9437 199.126 18.061C198.169 18.1783 197.391 18.3992 196.798 18.7306C196.201 19.0619 195.772 19.5244 195.505 20.1249C195.237 20.7254 195.107 21.5055 195.107 22.4684C195.107 23.4313 195.241 24.2148 195.505 24.8118C195.772 25.4124 196.201 25.8783 196.798 26.2165C197.391 26.5548 198.169 26.786 199.126 26.8999C200.086 27.0173 201.255 27.0725 202.641 27.0725Z" fill="#010101"/>
<path d="M74.4095 12.9219C78.7403 12.9219 81.991 13.6639 84.165 15.148C86.339 16.6321 87.426 18.9721 87.426 22.1681C87.426 25.364 86.3424 27.7316 84.1787 29.2157C82.0116 30.6998 78.7574 31.4418 74.4095 31.4418C70.0615 31.4418 66.7833 30.6998 64.6265 29.2157C62.4697 27.7351 61.3929 25.3847 61.3929 22.1681C61.3929 18.9514 62.4765 16.6321 64.6402 15.148C66.8039 13.6639 70.0615 12.9219 74.4095 12.9219ZM74.4095 26.7756C75.7948 26.7756 76.9675 26.7169 77.9242 26.603C78.8843 26.4857 79.6593 26.2579 80.2525 25.9197C80.8457 25.5814 81.2778 25.1121 81.5452 24.515C81.8127 23.9144 81.943 23.1344 81.943 22.1715C81.943 21.2086 81.8093 20.4251 81.5452 19.828C81.2778 19.231 80.8491 18.765 80.2525 18.4337C79.6558 18.1024 78.8809 17.8815 77.9242 17.7641C76.9675 17.6468 75.7948 17.5881 74.4095 17.5881C73.0241 17.5881 71.8548 17.6468 70.8947 17.7641C69.938 17.8815 69.1596 18.1024 68.5664 18.4337C67.9698 18.765 67.5412 19.2275 67.2737 19.828C67.0062 20.4286 66.8759 21.2086 66.8759 22.1715C66.8759 23.1344 67.0097 23.9179 67.2737 24.515C67.5412 25.1155 67.9698 25.5814 68.5664 25.9197C69.1596 26.2579 69.938 26.4891 70.8947 26.603C71.8548 26.7204 73.0241 26.7756 74.4095 26.7756Z" fill="#010101"/>
<path d="M242.575 13.5122L236.958 18.6858C236.337 19.2587 235.813 19.735 235.388 20.1181C234.962 20.5046 234.599 20.8256 234.297 21.0845C233.995 21.3433 233.742 21.5573 233.539 21.7264C233.334 21.8955 233.152 22.044 232.994 22.1682C233.152 22.2752 233.33 22.4098 233.526 22.5686C233.721 22.7273 233.978 22.9586 234.297 23.2519C234.616 23.5487 235.017 23.918 235.497 24.3633C235.977 24.8119 236.578 25.3711 237.308 26.051L243.003 31.4351H235.23L229.161 25.5126L222.906 31.4351H216.065L221.867 26.051C222.543 25.4263 223.108 24.9017 223.571 24.4841C224.034 24.063 224.415 23.7213 224.717 23.4521C225.018 23.1829 225.272 22.9689 225.474 22.8102C225.677 22.6514 225.858 22.5064 226.02 22.3822C225.858 22.2579 225.684 22.1199 225.488 21.968C225.293 21.8162 225.042 21.6022 224.741 21.3261C224.439 21.05 224.058 20.7014 223.595 20.2803C223.132 19.8592 222.556 19.3208 221.864 18.6582L216.408 13.5122H224.048L229.719 19.0861L235.443 13.5122H242.575Z" fill="#010101"/>
<path d="M86.1332 27.3276L81.3909 24.6528L72.8492 26.7547L86.1195 34.2165L86.1332 27.3276Z" fill="#99CA3D"/>
<path d="M81.3909 24.6528L86.1195 34.2165L72.8492 26.7547L81.3909 24.6528Z" fill="url(#paint6_linear_15_162)"/>
<path d="M65.8438 44.3568C65.374 44.8296 64.6471 45.0229 63.8893 45.0229C63.2343 45.0229 62.5451 44.8469 62.0376 44.381C61.6707 44.0462 61.3929 43.5181 61.3929 42.9314H62.5451C62.5451 43.2386 62.6857 43.5112 62.8674 43.6976C63.128 43.9599 63.5464 44.0324 63.9064 44.0324C64.335 44.0324 64.7431 43.9426 64.9797 43.6976C65.1203 43.5492 65.2231 43.3973 65.2231 43.1005C65.2231 42.6449 64.8734 42.4344 64.4893 42.3619C64.071 42.2825 63.5292 42.2653 63.1177 42.1928C62.2639 42.0547 61.5473 41.4887 61.5473 40.4533C61.5473 39.9598 61.7667 39.5491 62.089 39.2246C62.5005 38.8208 63.1795 38.5654 63.9064 38.5654C64.5682 38.5654 65.2163 38.776 65.6346 39.1729C66.0015 39.5249 66.2553 39.9839 66.2621 40.5016H65.11C65.0997 40.2808 64.9865 40.0426 64.8391 39.8838C64.6402 39.6733 64.2287 39.5491 63.8961 39.5491C63.5464 39.5491 63.1452 39.6284 62.8914 39.8908C62.7611 40.0323 62.6823 40.191 62.6823 40.4188C62.6823 40.8226 62.9429 41.0331 63.3098 41.0953C63.7041 41.1574 64.2527 41.1988 64.6539 41.254C65.5798 41.3852 66.3547 41.9926 66.3547 43.0556C66.3547 43.6355 66.1455 44.0462 65.8404 44.3568H65.8438Z" fill="#99CA3D"/>
<path d="M71.361 44.3188C70.8878 44.7951 70.2432 45.0229 69.5814 45.0229C68.9196 45.0229 68.2715 44.7951 67.8017 44.3188C67.1296 43.6424 67.0165 42.8175 67.0165 41.7993C67.0165 40.7812 67.1296 39.946 67.8017 39.2695C68.2715 38.7932 68.9196 38.5654 69.5814 38.5654C70.2432 38.5654 70.8913 38.7932 71.361 39.2695C72.0331 39.946 72.1463 40.7812 72.1463 41.7993C72.1463 42.8175 72.0331 43.6424 71.361 44.3188ZM70.5586 40.0046C70.3152 39.7389 69.938 39.5905 69.5814 39.5905C69.2248 39.5905 68.8476 39.7389 68.6041 40.0046C68.1755 40.4533 68.1583 41.2264 68.1583 41.7959C68.1583 42.3654 68.1755 43.1316 68.6041 43.5802C68.8476 43.846 69.2248 43.9944 69.5814 43.9944C69.938 43.9944 70.3152 43.846 70.5586 43.5802C70.9873 43.1316 71.0044 42.3688 71.0044 41.7959C71.0044 41.223 70.9873 40.4499 70.5586 40.0046Z" fill="#99CA3D"/>
<path d="M74.3614 39.7082V41.3786H77.1732V42.4037H74.3614V44.9094H73.2367V38.6797H77.5127V39.7082H74.3614Z" fill="#99CA3D"/>
<path d="M80.6537 39.7358V44.9094H79.529V39.7358H77.6979V38.6797H82.4882V39.7358H80.6537Z" fill="#99CA3D"/>
<path d="M88.7736 44.9094H87.6489L86.3562 40.6124L85.0634 44.9094H83.9387L82.6906 38.6797H83.7638L84.6279 43.0111L85.9035 38.7763H86.8465L88.0947 43.0111L88.9759 38.6797H90.0046L88.7736 44.9094Z" fill="#99CA3D"/>
<path d="M94.4211 44.9094L94.02 43.7152H91.5579L91.1567 44.9094H90.0217L92.1957 38.6797H93.4267L95.6007 44.9094H94.4211ZM92.7889 40.0671L91.9077 42.6936H93.6702L92.7889 40.0671Z" fill="#99CA3D"/>
<path d="M99.8561 44.9094L98.8274 42.5556H97.4558V44.9094H96.3208V38.6797H98.9303C100.405 38.6797 101.077 39.6116 101.077 40.6124C101.077 41.4477 100.624 42.1034 99.9418 42.3623L101.077 44.9094H99.8561ZM98.9303 39.6737H97.4455V41.534H98.9474C99.5852 41.534 99.9521 41.1992 99.9521 40.6124C99.9521 40.112 99.5681 39.6737 98.9303 39.6737Z" fill="#99CA3D"/>
<path d="M102.075 44.9094V38.6797H106.481V39.7082H103.199V41.1578H106.087V42.1794H103.199V43.8843H106.481V44.9128H102.075V44.9094Z" fill="#99CA3D"/>
<path d="M113.524 44.2399C113.113 44.6713 112.495 44.906 111.786 44.906H109.378V38.6763H111.786C112.492 38.6763 113.113 38.9144 113.524 39.3458C114.162 40.005 114.248 40.9266 114.248 41.7859C114.248 42.6453 114.162 43.5772 113.524 44.2364V44.2399ZM112.66 40.0499C112.451 39.8394 112.146 39.6979 111.789 39.6979H110.507V43.8878H111.789C112.146 43.8878 112.451 43.7463 112.66 43.5358C113.099 43.0975 113.106 42.3589 113.106 41.7894C113.106 41.2199 113.099 40.4882 112.66 40.0499Z" fill="#99CA3D"/>
<path d="M115.348 44.9094V38.6797H119.758V39.7082H116.477V41.1578H119.364V42.1794H116.477V43.8843H119.758V44.9128H115.348V44.9094Z" fill="#99CA3D"/>
<path d="M123.396 44.9094H122.155L120.104 38.6797H121.301L122.803 43.4322L124.295 38.6797H125.43L123.396 44.9094Z" fill="#99CA3D"/>
<path d="M126.153 44.9094V38.6797H130.559V39.7082H127.278V41.1578H130.169V42.1794H127.278V43.8843H130.559V44.9128H126.153V44.9094Z" fill="#99CA3D"/>
<path d="M131.636 44.9094V38.6797H132.761V43.836H135.634V44.9059H131.636V44.9094Z" fill="#99CA3D"/>
<path d="M140.205 44.3188C139.736 44.7951 139.087 45.0229 138.426 45.0229C137.764 45.0229 137.116 44.7951 136.646 44.3188C135.974 43.6424 135.861 42.8175 135.861 41.7993C135.861 40.7812 135.974 39.946 136.646 39.2695C137.116 38.7932 137.764 38.5654 138.426 38.5654C139.087 38.5654 139.736 38.7932 140.205 39.2695C140.877 39.946 140.991 40.7812 140.991 41.7993C140.991 42.8175 140.877 43.6424 140.205 44.3188ZM139.403 40.0046C139.159 39.7389 138.782 39.5905 138.426 39.5905C138.069 39.5905 137.692 39.7389 137.448 40.0046C137.02 40.4533 137.003 41.2264 137.003 41.7959C137.003 42.3654 137.02 43.1316 137.448 43.5802C137.692 43.846 138.069 43.9944 138.426 43.9944C138.782 43.9944 139.159 43.846 139.403 43.5802C139.832 43.1316 139.849 42.3688 139.849 41.7959C139.849 41.223 139.832 40.4499 139.403 40.0046Z" fill="#99CA3D"/>
<path d="M144.509 42.6764H143.199V44.906H142.081V38.6763H144.509C145.932 38.6763 146.69 39.477 146.69 40.6712C146.69 41.8653 145.932 42.6729 144.509 42.6729V42.6764ZM144.464 39.6737H143.199V41.6859H144.464C145.215 41.6859 145.555 41.282 145.555 40.685C145.555 40.0879 145.215 39.6737 144.464 39.6737Z" fill="#99CA3D"/>
<path d="M152.652 44.9094V40.4641L151.048 44.8197H150.218L148.62 40.4089V44.906H147.53V38.6763H149.049L150.671 43.1113L152.303 38.6763H153.743V44.906H152.652V44.9094Z" fill="#99CA3D"/>
<path d="M155.193 44.9094V38.6797H159.603V39.7082H156.322V41.1578H159.212V42.1794H156.322V43.8843H159.603V44.9128H155.193V44.9094Z" fill="#99CA3D"/>
<path d="M164.462 44.9094L161.784 40.6332V44.9094H160.676V38.6797H161.873L164.517 42.8972V38.6797H165.628V44.9094H164.465H164.462Z" fill="#99CA3D"/>
<path d="M169.355 39.7358V44.9094H168.231V39.7358H166.399V38.6797H171.19V39.7358H169.359H169.355Z" fill="#99CA3D"/>
<path d="M177.667 44.9161L177.232 44.426C176.734 44.8643 176.117 45.0749 175.476 45.0749C174.375 45.0749 173.422 44.357 173.422 43.187C173.422 42.4139 173.868 41.8789 174.523 41.4751C174.132 41.0437 173.861 40.702 173.861 40.1222C173.861 39.1351 174.619 38.5483 175.551 38.5483C176.484 38.5483 177.262 39.1109 177.262 40.0876C177.262 40.8953 176.772 41.3612 176.093 41.7581L177.166 42.935C177.273 42.7417 177.307 42.4587 177.324 42.1723C177.341 41.8893 177.341 41.5993 177.341 41.4095H178.939V42.2793H178.223C178.195 42.7624 178.109 43.2629 177.845 43.6736C178.24 44.0947 178.607 44.5088 178.987 44.923H177.66L177.667 44.9161ZM175.164 42.1585C174.752 42.4035 174.43 42.614 174.43 43.1421C174.43 43.784 174.955 44.1154 175.538 44.1154C175.908 44.1154 176.306 44.0291 176.58 43.7288C176.1 43.2008 175.644 42.6831 175.167 42.155L175.164 42.1585ZM175.555 39.4526C175.198 39.4526 174.866 39.6735 174.866 40.1014C174.866 40.5053 175.198 40.7952 175.449 41.0609C175.833 40.8504 176.244 40.6468 176.244 40.1291C176.244 39.6976 175.949 39.4526 175.555 39.4526Z" fill="#99CA3D"/>
<path d="M181.875 44.9094V38.6797H183.016V44.9094H181.875Z" fill="#99CA3D"/>
<path d="M186.751 39.7358V44.9094H185.626V39.7358H183.795V38.6797H188.585V39.7358H186.751Z" fill="#99CA3D"/>
<path d="M194.888 44.2843C194.425 44.7606 193.777 45.0229 193.115 45.0229C192.453 45.0229 191.832 44.802 191.363 44.3292C190.69 43.6527 190.594 42.8175 190.594 41.7993C190.594 40.7812 190.69 39.946 191.363 39.2695C191.832 38.7932 192.453 38.5654 193.115 38.5654C193.777 38.5654 194.425 38.8105 194.888 39.2868C195.244 39.6561 195.429 40.1462 195.481 40.6397H194.329C194.301 40.367 194.205 40.1738 194.047 39.9805C193.849 39.7251 193.499 39.5939 193.115 39.5939C192.758 39.5939 192.405 39.7423 192.165 40.0081C191.736 40.4568 191.736 41.2299 191.736 41.7993C191.736 42.3688 191.736 43.1419 192.165 43.5906C192.408 43.8564 192.758 44.0048 193.115 44.0048C193.499 44.0048 193.849 43.8633 194.047 43.6079C194.205 43.4146 194.301 43.1937 194.329 42.921H195.481C195.429 43.4146 195.244 43.915 194.888 44.2809V44.2843Z" fill="#99CA3D"/>
<path d="M200.436 44.3188C199.966 44.7951 199.318 45.0229 198.656 45.0229C197.994 45.0229 197.346 44.7951 196.876 44.3188C196.204 43.6424 196.091 42.8175 196.091 41.7993C196.091 40.7812 196.204 39.946 196.876 39.2695C197.35 38.7932 197.994 38.5654 198.656 38.5654C199.318 38.5654 199.966 38.7932 200.436 39.2695C201.108 39.946 201.224 40.7812 201.224 41.7993C201.224 42.8175 201.111 43.6424 200.436 44.3188ZM199.633 40.0046C199.39 39.7389 199.016 39.5905 198.656 39.5905C198.296 39.5905 197.922 39.7389 197.679 40.0046C197.25 40.4533 197.233 41.2264 197.233 41.7959C197.233 42.3654 197.25 43.1316 197.679 43.5802C197.922 43.846 198.299 43.9944 198.656 43.9944C199.013 43.9944 199.39 43.846 199.633 43.5802C200.062 43.1316 200.079 42.3688 200.079 41.7959C200.079 41.223 200.062 40.4499 199.633 40.0046Z" fill="#99CA3D"/>
<path d="M206.1 44.9094L203.422 40.6332V44.9094H202.311V38.6797H203.508L206.152 42.8972V38.6797H207.263V44.9094H206.1Z" fill="#99CA3D"/>
<path d="M212.701 44.3568C212.228 44.8296 211.505 45.0229 210.747 45.0229C210.092 45.0229 209.403 44.8469 208.899 44.381C208.532 44.0462 208.254 43.5181 208.254 42.9314H209.403C209.403 43.2386 209.543 43.5112 209.728 43.6976C209.992 43.9599 210.411 44.0324 210.767 44.0324C211.196 44.0324 211.604 43.9426 211.841 43.6976C211.981 43.5492 212.084 43.3973 212.084 43.1005C212.084 42.6449 211.734 42.4344 211.35 42.3619C210.932 42.2825 210.39 42.2653 209.982 42.1928C209.125 42.0547 208.408 41.4887 208.408 40.4533C208.408 39.9598 208.628 39.5491 208.95 39.2246C209.361 38.8208 210.04 38.5654 210.764 38.5654C211.426 38.5654 212.074 38.776 212.492 39.1729C212.856 39.5249 213.109 39.9839 213.12 40.5016H211.968C211.957 40.2808 211.844 40.0426 211.697 39.8838C211.498 39.6733 211.086 39.5491 210.754 39.5491C210.404 39.5491 210.003 39.6284 209.749 39.8908C209.619 40.0323 209.54 40.191 209.54 40.4188C209.54 40.8226 209.8 41.0331 210.167 41.0953C210.558 41.1574 211.11 41.1988 211.511 41.254C212.437 41.3852 213.212 41.9926 213.212 43.0556C213.212 43.6355 213.003 44.0462 212.698 44.3568H212.701Z" fill="#99CA3D"/>
<path d="M216.48 45.0233C214.882 45.0233 214.052 44.0051 214.052 42.5176V38.6797H215.177V42.5003C215.177 43.3873 215.578 43.9948 216.477 43.9948C217.375 43.9948 217.776 43.3908 217.776 42.5003V38.6797H218.901V42.5176C218.901 44.0017 218.071 45.0233 216.473 45.0233H216.48Z" fill="#99CA3D"/>
<path d="M220.18 44.9094V38.6797H221.308V43.836H224.178V44.9059H220.18V44.9094Z" fill="#99CA3D"/>
<path d="M226.349 39.7358V44.9094H225.221V39.7358H223.39V38.6797H228.183V39.7358H226.349Z" fill="#99CA3D"/>
<path d="M228.962 44.9094V38.6797H230.104V44.9094H228.962Z" fill="#99CA3D"/>
<path d="M235.34 44.9094L232.658 40.6332V44.9094H231.551V38.6797H232.747L235.391 42.8972V38.6797H236.499V44.9094H235.34Z" fill="#99CA3D"/>
<path d="M241.92 44.909L241.79 44.2256C241.604 44.5846 241.011 45.016 240.236 45.0263C239.52 45.0367 238.882 44.8503 238.395 44.3326C237.75 43.6561 237.593 42.8209 237.593 41.8028C237.593 40.7846 237.723 39.9735 238.395 39.3005C238.865 38.8242 239.574 38.5688 240.236 38.5688C240.994 38.5688 241.649 38.8484 242.067 39.2798C242.376 39.5939 242.602 39.9908 242.637 40.5361H241.484C241.467 40.2911 241.344 40.122 241.214 39.9632C240.998 39.7078 240.655 39.587 240.229 39.587C239.869 39.587 239.461 39.7458 239.218 40.0081C238.789 40.4567 238.738 41.2298 238.738 41.7993C238.738 42.3688 238.8 43.1695 239.225 43.6182C239.472 43.8805 239.869 44.0116 240.229 44.0116C240.631 44.0116 240.946 43.8736 241.155 43.6527C241.488 43.3007 241.556 42.9141 241.556 42.4413H240.082V41.5025H242.647V44.909H241.923H241.92Z" fill="#99CA3D"/>
</g>
<defs>
<linearGradient id="paint0_linear_15_162" x1="6.12421" y1="23.3345" x2="6.12421" y2="41.6715" gradientUnits="userSpaceOnUse">
<stop offset="0.27" stop-color="#333132"/>
<stop offset="1" stop-color="#89878A"/>
</linearGradient>
<linearGradient id="paint1_linear_15_162" x1="4.33426" y1="18.4924" x2="25.8138" y2="6.63463" gradientUnits="userSpaceOnUse">
<stop offset="0.5" stop-color="#333132"/>
<stop offset="1" stop-color="#89878A"/>
</linearGradient>
<linearGradient id="paint2_linear_15_162" x1="25.433" y1="10.6405" x2="49.9298" y2="10.6405" gradientUnits="userSpaceOnUse">
<stop stop-color="#477637"/>
<stop offset="1" stop-color="#68AC44"/>
</linearGradient>
<linearGradient id="paint3_linear_15_162" x1="37.6814" y1="28.4079" x2="0.342939" y2="28.4079" gradientUnits="userSpaceOnUse">
<stop stop-color="#477637"/>
<stop offset="1" stop-color="#68AC44"/>
</linearGradient>
<linearGradient id="paint4_linear_15_162" x1="4.85893" y1="39.2176" x2="25.8584" y2="51.7979" gradientUnits="userSpaceOnUse">
<stop offset="0.5" stop-color="#333132"/>
<stop offset="1" stop-color="#89878A"/>
</linearGradient>
<linearGradient id="paint5_linear_15_162" x1="25.5527" y1="47.5698" x2="49.6068" y2="46.9732" gradientUnits="userSpaceOnUse">
<stop stop-color="#477637"/>
<stop offset="1" stop-color="#68AC44"/>
</linearGradient>
<linearGradient id="paint6_linear_15_162" x1="72.9215" y1="29.7079" x2="85.9992" y2="29.3835" gradientUnits="userSpaceOnUse">
<stop stop-color="#477637"/>
<stop offset="1" stop-color="#68AC44"/>
</linearGradient>
<clipPath id="clip0_15_162">
<rect width="243" height="58" fill="white"/>
</clipPath>
</defs>
</svg>
