<svg width="195" height="166" viewBox="0 0 195 166" fill="none" xmlns="http://www.w3.org/2000/svg">
<g clip-path="url(#clip0_15_7)">
<path d="M45.0122 87.9806L70.6741 73.6366L45.0122 29.4573V87.9806Z" fill="url(#paint0_linear_15_7)"/>
<path d="M45.0122 29.4573L70.6741 43.9903L96.3271 0L45.0122 29.4573Z" fill="url(#paint1_linear_15_7)"/>
<path d="M70.6741 73.6366V43.9903L45.0122 29.4573L70.6741 73.6366Z" fill="#6E6F72"/>
<path d="M70.6741 43.9903L96.3271 29.4573V0L70.6741 43.9903Z" fill="#6E6F72"/>
<path d="M98.2878 0L123.945 43.9859L149.603 29.4529L98.2878 0Z" fill="url(#paint2_linear_15_7)"/>
<path d="M123.945 73.6366L149.603 87.9762V29.4529L123.945 73.6366Z" fill="url(#paint3_linear_15_7)"/>
<path d="M123.945 43.9859V73.6366L149.603 29.4529L123.945 43.9859Z" fill="#99CA3D"/>
<path d="M98.2878 29.4529L123.945 43.9859L98.2878 0V29.4529Z" fill="#99CA3D"/>
<path d="M96.2607 90.6358L70.9175 75.5708L45.0786 90.0291L95.9509 119.882L96.2607 90.6358Z" fill="url(#paint4_linear_15_7)"/>
<path d="M45.0786 90.0291L96.2607 90.6357L70.9175 75.5708L45.0786 90.0291Z" fill="#6E6F72"/>
<path d="M149.536 90.016L123.821 75.584L98.3542 90.6797L149.488 119.17L149.536 90.016Z" fill="#99CA3D"/>
<path d="M123.821 75.584L149.488 119.17L98.3542 90.6797L123.821 75.584Z" fill="url(#paint5_linear_15_7)"/>
<path d="M55.7939 143.264C55.7939 148.996 51.8194 151.867 43.8748 151.867C41.5688 151.867 39.586 151.687 37.9307 151.326C36.2709 150.966 34.9033 150.43 33.8278 149.709C32.7523 148.992 31.96 148.095 31.4555 147.027C30.9509 145.959 30.6986 144.706 30.6986 143.264V132.56H36.5852V143.264C36.5852 143.963 36.6825 144.552 36.8729 145.027C37.0632 145.497 37.4217 145.884 37.9439 146.174C38.4662 146.469 39.2053 146.675 40.1614 146.798C41.1129 146.922 42.3522 146.983 43.8792 146.983C45.0211 146.983 45.9771 146.917 46.7384 146.785C47.4996 146.653 48.1104 146.434 48.5663 146.13C49.0222 145.827 49.3541 145.44 49.5533 144.965C49.7525 144.491 49.8543 143.924 49.8543 143.26V132.556H55.7984V143.26L55.7939 143.264Z" fill="#010101"/>
<path d="M64.9691 151.555L68.5408 146.671H75.1267C75.7463 146.671 76.2863 146.689 76.7422 146.728C76.4766 146.385 76.1668 145.959 75.8127 145.436C75.4586 144.917 75.1223 144.429 74.7992 143.972L71.369 138.947L62.3931 151.551H55.3912L67.6556 134.376C68.054 133.826 68.5585 133.334 69.1693 132.898C69.7801 132.463 70.5502 132.243 71.4841 132.243C72.418 132.243 73.1261 132.446 73.7281 132.855C74.33 133.263 74.839 133.769 75.2595 134.376L87.2052 151.551H64.9691V151.555Z" fill="#010101"/>
<path d="M108.702 151.867C108.322 151.867 107.945 151.805 107.574 151.682C107.202 151.559 106.786 151.282 106.33 150.847L94.6098 140.402V151.559H89.2367V135.804C89.2367 135.18 89.3252 134.639 89.5067 134.186C89.6881 133.734 89.9272 133.364 90.2237 133.079C90.5202 132.793 90.861 132.586 91.2549 132.454C91.6444 132.323 92.0516 132.257 92.4721 132.257C92.835 132.257 93.2024 132.318 93.5742 132.441C93.9459 132.564 94.3708 132.846 94.8444 133.281L106.564 143.73V132.573H111.969V148.302C111.969 148.926 111.876 149.467 111.699 149.92C111.517 150.372 111.278 150.746 110.982 151.041C110.685 151.335 110.34 151.546 109.937 151.678C109.539 151.81 109.127 151.876 108.707 151.876L108.702 151.867Z" fill="#010101"/>
<path d="M139.202 132.56L135.373 137.501H128.539V151.555H122.622V137.501H113.646L117.474 132.56H139.197H139.202Z" fill="#010101"/>
<path d="M151.665 132.248C156.313 132.248 159.805 133.035 162.142 134.604C164.474 136.173 165.642 138.653 165.642 142.042C165.642 145.431 164.483 147.937 162.155 149.506C159.831 151.08 156.335 151.863 151.665 151.863C146.996 151.863 143.477 151.076 141.162 149.506C138.848 147.937 137.688 145.449 137.688 142.042C137.688 138.635 138.852 136.173 141.176 134.604C143.499 133.035 146.996 132.248 151.665 132.248ZM151.665 146.926C153.152 146.926 154.409 146.864 155.441 146.741C156.467 146.618 157.304 146.376 157.941 146.016C158.579 145.656 159.043 145.159 159.327 144.526C159.614 143.893 159.756 143.062 159.756 142.042C159.756 141.022 159.614 140.191 159.327 139.558C159.039 138.925 158.579 138.433 157.941 138.081C157.304 137.73 156.467 137.497 155.441 137.369C154.409 137.246 153.152 137.185 151.665 137.185C150.178 137.185 148.921 137.246 147.89 137.369C146.859 137.492 146.027 137.73 145.389 138.081C144.752 138.433 144.287 138.921 144.004 139.558C143.716 140.191 143.575 141.022 143.575 142.042C143.575 143.062 143.716 143.893 144.004 144.526C144.292 145.159 144.752 145.656 145.389 146.016C146.027 146.376 146.863 146.618 147.89 146.741C148.921 146.864 150.178 146.926 151.665 146.926Z" fill="#010101"/>
<path d="M13.9773 131.936C18.6245 131.936 22.1166 132.723 24.4536 134.292C26.7861 135.861 27.9545 138.341 27.9545 141.73C27.9545 145.119 26.7905 147.625 24.4668 149.194C22.1432 150.768 18.6467 151.55 13.9773 151.55C9.30784 151.55 5.78919 150.764 3.4744 149.194C1.15961 147.625 0 145.137 0 141.73C0 138.323 1.16403 135.861 3.48768 134.292C5.81132 132.723 9.30784 131.936 13.9773 131.936ZM13.9773 146.614C15.4644 146.614 16.7214 146.552 17.7482 146.429C18.7794 146.306 19.6115 146.064 20.2489 145.704C20.8862 145.343 21.3509 144.851 21.6342 144.214C21.9219 143.581 22.0635 142.75 22.0635 141.73C22.0635 140.71 21.9219 139.879 21.6342 139.246C21.3465 138.613 20.8862 138.121 20.2489 137.769C19.6115 137.417 18.775 137.185 17.7482 137.061C16.7214 136.938 15.46 136.877 13.9773 136.877C12.4946 136.877 11.2331 136.938 10.2019 137.061C9.17507 137.185 8.33855 137.422 7.70121 137.769C7.06387 138.121 6.59914 138.613 6.31588 139.246C6.02819 139.879 5.88656 140.71 5.88656 141.73C5.88656 142.75 6.02819 143.581 6.31588 144.214C6.60357 144.847 7.06387 145.343 7.70121 145.704C8.33855 146.064 9.17507 146.306 10.2019 146.429C11.2331 146.552 12.4901 146.614 13.9773 146.614Z" fill="#010101"/>
<path d="M194.54 132.56L188.507 138.037C187.839 138.644 187.277 139.149 186.821 139.558C186.365 139.963 185.971 140.306 185.648 140.583C185.325 140.855 185.05 141.084 184.834 141.264C184.612 141.444 184.418 141.602 184.249 141.734C184.422 141.849 184.612 141.989 184.82 142.161C185.028 142.332 185.307 142.574 185.648 142.886C185.989 143.198 186.418 143.589 186.936 144.064C187.449 144.539 188.1 145.132 188.879 145.853L194.996 151.559H186.648L180.133 145.286L173.415 151.559H166.067L172.299 145.853C173.021 145.194 173.631 144.64 174.127 144.192C174.623 143.748 175.03 143.383 175.358 143.097C175.681 142.811 175.951 142.587 176.172 142.416C176.393 142.244 176.588 142.095 176.761 141.959C176.588 141.827 176.398 141.682 176.19 141.519C175.982 141.356 175.712 141.132 175.389 140.838C175.065 140.547 174.654 140.174 174.158 139.73C173.662 139.286 173.043 138.714 172.299 138.011L166.439 132.56H174.641L180.731 138.464L186.874 132.56H194.535H194.54Z" fill="#010101"/>
<path d="M26.5647 147.194L21.4704 144.363L12.3042 146.587L26.5514 154.496L26.5647 147.194Z" fill="#99CA3D"/>
<path d="M21.4704 144.363L26.5514 154.496L12.3042 146.587L21.4704 144.363Z" fill="url(#paint6_linear_15_7)"/>
<path d="M4.78006 165.235C4.2755 165.736 3.49653 165.943 2.68215 165.943C1.97841 165.943 1.23928 165.754 0.694879 165.261C0.300967 164.91 0 164.347 0 163.727H1.23928C1.23928 164.053 1.38976 164.343 1.58893 164.536C1.86776 164.817 2.31922 164.888 2.70428 164.888C3.16458 164.888 3.60275 164.796 3.85503 164.536C4.00552 164.378 4.11616 164.22 4.11616 163.903C4.11616 163.42 3.73996 163.195 3.32834 163.121C2.87689 163.037 2.29709 163.02 1.85449 162.945C0.933883 162.795 0.168187 162.202 0.168187 161.103C0.168187 160.58 0.402765 160.145 0.747991 159.802C1.19059 159.375 1.92088 159.103 2.69542 159.103C3.40801 159.103 4.10289 159.327 4.54991 159.745C4.94382 160.118 5.21381 160.602 5.22266 161.151H3.98781C3.97896 160.918 3.85503 160.668 3.6957 160.501C3.47882 160.276 3.04065 160.149 2.68215 160.149C2.30594 160.149 1.87662 160.232 1.60663 160.509C1.465 160.659 1.38091 160.826 1.38091 161.068C1.38091 161.494 1.65974 161.718 2.05366 161.784C2.47412 161.85 3.06721 161.894 3.49653 161.951C4.49237 162.092 5.32446 162.734 5.32446 163.859C5.32446 164.475 5.09873 164.91 4.77121 165.235H4.78006Z" fill="#99CA3D"/>
<path d="M10.702 165.2C10.1974 165.701 9.50256 165.943 8.78998 165.943C8.0774 165.943 7.38252 165.701 6.87796 165.2C6.15652 164.483 6.03259 163.609 6.03259 162.527C6.03259 161.446 6.15652 160.562 6.87796 159.846C7.38252 159.344 8.0774 159.098 8.78998 159.098C9.50256 159.098 10.1974 159.34 10.702 159.846C11.4234 160.562 11.5474 161.446 11.5474 162.527C11.5474 163.609 11.4279 164.483 10.702 165.2ZM9.83894 160.628C9.57781 160.347 9.17504 160.189 8.78998 160.189C8.40492 160.189 8.00216 160.347 7.74102 160.628C7.28072 161.103 7.26302 161.921 7.26302 162.527C7.26302 163.134 7.28072 163.943 7.74102 164.417C8.00216 164.694 8.40492 164.857 8.78998 164.857C9.17504 164.857 9.57781 164.699 9.83894 164.417C10.2992 163.943 10.3169 163.134 10.3169 162.527C10.3169 161.921 10.2992 161.103 9.83894 160.628Z" fill="#99CA3D"/>
<path d="M13.9286 160.312V162.079H16.9472V163.169H13.9286V165.824H12.7203V159.226H17.3101V160.316H13.9286V160.312Z" fill="#99CA3D"/>
<path d="M20.6826 160.338V165.82H19.4743V160.338H17.5048V159.221H22.6478V160.338H20.6782H20.6826Z" fill="#99CA3D"/>
<path d="M29.3973 165.824H28.1891L26.8037 161.27L25.4184 165.824H24.2101L22.869 159.226H24.0242L24.9537 163.815L26.3213 159.327H27.3348L28.6759 163.815L29.6231 159.226H30.7296L29.4062 165.824H29.3973Z" fill="#99CA3D"/>
<path d="M35.461 165.824L35.0317 164.558H32.3894L31.9601 165.824H30.7429L33.0754 159.226H34.3988L36.7313 165.824H35.4654H35.461ZM33.7083 160.694L32.7612 163.477H34.6555L33.7083 160.694Z" fill="#99CA3D"/>
<path d="M41.2988 165.824L40.1923 163.332H38.7229V165.824H37.5057V159.226H40.3074C41.8919 159.226 42.6133 160.211 42.6133 161.274C42.6133 162.158 42.1265 162.857 41.3962 163.125L42.6133 165.824H41.3032H41.2988ZM40.3074 160.276H38.714V162.25H40.3251C41.0067 162.25 41.405 161.899 41.405 161.274C41.405 160.742 40.9934 160.281 40.3074 160.281V160.276Z" fill="#99CA3D"/>
<path d="M43.6801 165.824V159.226H48.4114V160.316H44.8883V161.85H47.991V162.932H44.8883V164.738H48.4114V165.829H43.6801V165.824Z" fill="#99CA3D"/>
<path d="M55.9755 165.116C55.5329 165.574 54.869 165.824 54.1121 165.824H51.5273V159.226H54.1121C54.869 159.226 55.5373 159.476 55.9755 159.934C56.6571 160.633 56.7544 161.608 56.7544 162.523C56.7544 163.437 56.6615 164.422 55.9755 165.121V165.116ZM55.046 160.677C54.8203 160.452 54.4928 160.303 54.1077 160.303H52.7312V164.743H54.1077C54.4928 164.743 54.8203 164.593 55.046 164.369C55.5152 163.903 55.524 163.121 55.524 162.518C55.524 161.916 55.5152 161.142 55.046 160.677Z" fill="#99CA3D"/>
<path d="M57.9362 165.824V159.226H62.6675V160.316H59.1445V161.85H62.2471V162.932H59.1445V164.738H62.6675V165.829H57.9362V165.824Z" fill="#99CA3D"/>
<path d="M66.5757 165.824H65.2435L63.0393 159.226H64.3228L65.9339 164.259L67.5361 159.226H68.7533L66.5712 165.824H66.5757Z" fill="#99CA3D"/>
<path d="M69.5366 165.824V159.226H74.268V160.316H70.7449V161.85H73.8475V162.932H70.7449V164.738H74.268V165.829H69.5366V165.824Z" fill="#99CA3D"/>
<path d="M75.4232 165.824V159.226H76.6315V164.69H79.7164V165.824H75.4232Z" fill="#99CA3D"/>
<path d="M84.6249 165.2C84.1203 165.701 83.4254 165.943 82.7128 165.943C82.0003 165.943 81.3054 165.701 80.8008 165.2C80.0794 164.483 79.9554 163.609 79.9554 162.527C79.9554 161.446 80.0794 160.562 80.8008 159.846C81.3054 159.344 82.0003 159.098 82.7128 159.098C83.4254 159.098 84.1203 159.34 84.6249 159.846C85.3463 160.562 85.4702 161.446 85.4702 162.527C85.4702 163.609 85.3507 164.483 84.6249 165.2ZM83.7618 160.628C83.5007 160.347 83.0979 160.189 82.7128 160.189C82.3278 160.189 81.925 160.347 81.6639 160.628C81.2036 161.103 81.1859 161.921 81.1859 162.527C81.1859 163.134 81.2036 163.943 81.6639 164.417C81.925 164.694 82.3278 164.857 82.7128 164.857C83.0979 164.857 83.5007 164.699 83.7618 164.417C84.2221 163.943 84.2398 163.134 84.2398 162.527C84.2398 161.921 84.2221 161.103 83.7618 160.628Z" fill="#99CA3D"/>
<path d="M89.2456 163.459H87.8381V165.824H86.6387V159.226H89.2456C90.7725 159.226 91.5869 160.07 91.5869 161.336C91.5869 162.602 90.7725 163.459 89.2456 163.459ZM89.1969 160.276H87.8381V162.409H89.1969C90.0024 162.409 90.3698 161.982 90.3698 161.349C90.3698 160.716 90.0024 160.281 89.1969 160.281V160.276Z" fill="#99CA3D"/>
<path d="M97.9869 165.824V161.116L96.2608 165.732H95.3711L93.6538 161.059V165.824H92.481V159.226H94.1097L95.8536 163.925L97.6063 159.226H99.1509V165.824H97.978H97.9869Z" fill="#99CA3D"/>
<path d="M100.718 165.824V159.226H105.449V160.316H101.926V161.85H105.029V162.932H101.926V164.738H105.449V165.829H100.718V165.824Z" fill="#99CA3D"/>
<path d="M110.667 165.824L107.79 161.292V165.824H106.6V159.226H107.883L110.725 163.692V159.226H111.915V165.824H110.667Z" fill="#99CA3D"/>
<path d="M115.925 160.338V165.82H114.717V160.338H112.752V159.221H117.895V160.338H115.925Z" fill="#99CA3D"/>
<path d="M124.848 165.833L124.379 165.31C123.843 165.776 123.18 166 122.498 166C121.316 166 120.294 165.235 120.294 164C120.294 163.182 120.772 162.615 121.476 162.184C121.055 161.727 120.763 161.367 120.763 160.751C120.763 159.705 121.577 159.085 122.582 159.085C123.587 159.085 124.419 159.679 124.419 160.716C124.419 161.573 123.892 162.066 123.166 162.483L124.317 163.732C124.428 163.525 124.468 163.231 124.485 162.923C124.503 162.624 124.503 162.316 124.503 162.114H126.22V163.037H125.45C125.424 163.551 125.326 164.079 125.047 164.519C125.468 164.967 125.862 165.402 126.273 165.842H124.848V165.833ZM122.162 162.91C121.719 163.169 121.374 163.393 121.374 163.951C121.374 164.628 121.936 164.985 122.564 164.985C122.958 164.985 123.388 164.892 123.68 164.576C123.166 164.017 122.675 163.468 122.162 162.91ZM122.582 160.043C122.201 160.043 121.843 160.276 121.843 160.734C121.843 161.16 122.201 161.468 122.471 161.749C122.883 161.525 123.326 161.314 123.326 160.764C123.326 160.307 123.007 160.048 122.586 160.048L122.582 160.043Z" fill="#99CA3D"/>
<path d="M129.363 165.824V159.226H130.589V165.824H129.363Z" fill="#99CA3D"/>
<path d="M134.603 160.338V165.82H133.395V160.338H131.425V159.221H136.568V160.338H134.599H134.603Z" fill="#99CA3D"/>
<path d="M143.336 165.16C142.84 165.661 142.145 165.943 141.432 165.943C140.72 165.943 140.056 165.71 139.551 165.209C138.83 164.492 138.724 163.609 138.724 162.527C138.724 161.446 138.825 160.562 139.551 159.846C140.056 159.344 140.724 159.098 141.432 159.098C142.14 159.098 142.835 159.358 143.336 159.863C143.716 160.254 143.915 160.778 143.973 161.296H142.738C142.707 161.006 142.605 160.804 142.437 160.597C142.225 160.329 141.848 160.189 141.437 160.189C141.052 160.189 140.675 160.347 140.414 160.628C139.954 161.103 139.954 161.921 139.954 162.527C139.954 163.134 139.954 163.951 140.414 164.426C140.675 164.703 141.052 164.866 141.437 164.866C141.848 164.866 142.225 164.716 142.437 164.448C142.605 164.242 142.707 164.009 142.738 163.723H143.973C143.915 164.242 143.716 164.774 143.336 165.165V165.16Z" fill="#99CA3D"/>
<path d="M149.297 165.2C148.793 165.701 148.098 165.943 147.385 165.943C146.673 165.943 145.982 165.701 145.473 165.2C144.752 164.483 144.628 163.609 144.628 162.527C144.628 161.446 144.752 160.562 145.473 159.846C145.978 159.344 146.673 159.098 147.385 159.098C148.098 159.098 148.793 159.34 149.297 159.846C150.019 160.562 150.143 161.446 150.143 162.527C150.143 163.609 150.019 164.483 149.297 165.2ZM148.434 160.628C148.173 160.347 147.77 160.189 147.385 160.189C147 160.189 146.598 160.347 146.336 160.628C145.876 161.103 145.858 161.921 145.858 162.527C145.858 163.134 145.876 163.943 146.336 164.417C146.598 164.694 147 164.857 147.385 164.857C147.77 164.857 148.173 164.699 148.434 164.417C148.895 163.943 148.912 163.134 148.912 162.527C148.912 161.921 148.895 161.103 148.434 160.628Z" fill="#99CA3D"/>
<path d="M155.379 165.824L152.502 161.292V165.824H151.311V159.226H152.595L155.432 163.692V159.226H156.622V165.824H155.374H155.379Z" fill="#99CA3D"/>
<path d="M162.465 165.235C161.96 165.736 161.181 165.943 160.367 165.943C159.663 165.943 158.924 165.754 158.379 165.261C157.986 164.91 157.685 164.347 157.685 163.727H158.919C158.919 164.053 159.07 164.343 159.269 164.536C159.548 164.817 159.999 164.888 160.384 164.888C160.845 164.888 161.283 164.796 161.54 164.536C161.69 164.378 161.801 164.22 161.801 163.903C161.801 163.42 161.429 163.195 161.013 163.121C160.561 163.037 159.982 163.02 159.539 162.945C158.618 162.795 157.853 162.202 157.853 161.103C157.853 160.58 158.087 160.145 158.433 159.802C158.871 159.375 159.605 159.103 160.38 159.103C161.093 159.103 161.787 159.327 162.234 159.745C162.624 160.118 162.898 160.602 162.912 161.151H161.672C161.664 160.918 161.54 160.668 161.38 160.501C161.163 160.276 160.725 160.149 160.367 160.149C159.99 160.149 159.561 160.232 159.287 160.509C159.145 160.659 159.061 160.826 159.061 161.068C159.061 161.494 159.344 161.718 159.734 161.784C160.154 161.85 160.747 161.894 161.177 161.951C162.168 162.092 163.005 162.734 163.005 163.859C163.005 164.475 162.779 164.91 162.451 165.235H162.465Z" fill="#99CA3D"/>
<path d="M166.523 165.943C164.806 165.943 163.916 164.861 163.916 163.288V159.221H165.125V163.27C165.125 164.211 165.554 164.853 166.523 164.853C167.492 164.853 167.917 164.211 167.917 163.27V159.221H169.126V163.288C169.126 164.861 168.236 165.943 166.519 165.943H166.523Z" fill="#99CA3D"/>
<path d="M170.493 165.824V159.226H171.706V164.69H174.786V165.824H170.493Z" fill="#99CA3D"/>
<path d="M177.119 160.338V165.82H175.906V160.338H173.941V159.221H179.089V160.338H177.119Z" fill="#99CA3D"/>
<path d="M179.925 165.824V159.226H181.151V165.824H179.925Z" fill="#99CA3D"/>
<path d="M186.772 165.824L183.895 161.292V165.824H182.705V159.226H183.988L186.825 163.692V159.226H188.016V165.824H186.768H186.772Z" fill="#99CA3D"/>
<path d="M193.84 165.824L193.703 165.099C193.504 165.481 192.867 165.938 192.035 165.947C191.264 165.956 190.583 165.758 190.056 165.213C189.361 164.497 189.193 163.613 189.193 162.532C189.193 161.45 189.335 160.597 190.056 159.881C190.561 159.38 191.322 159.107 192.035 159.107C192.849 159.107 193.553 159.406 194 159.859C194.327 160.193 194.571 160.611 194.611 161.191H193.371C193.354 160.931 193.221 160.756 193.079 160.584C192.845 160.316 192.482 160.184 192.021 160.184C191.636 160.184 191.194 160.351 190.933 160.633C190.472 161.107 190.415 161.925 190.415 162.532C190.415 163.138 190.481 163.982 190.937 164.457C191.198 164.734 191.632 164.875 192.017 164.875C192.446 164.875 192.783 164.725 193.013 164.492C193.367 164.119 193.442 163.71 193.442 163.209H191.858V162.215H194.611V165.824H193.832H193.84Z" fill="#99CA3D"/>
</g>
<defs>
<linearGradient id="paint0_linear_15_7" x1="57.8431" y1="48.2324" x2="57.8431" y2="86.1343" gradientUnits="userSpaceOnUse">
<stop offset="0.27" stop-color="#333132"/>
<stop offset="1" stop-color="#89878A"/>
</linearGradient>
<linearGradient id="paint1_linear_15_7" x1="54.0899" y1="38.2228" x2="98.8027" y2="13.2107" gradientUnits="userSpaceOnUse">
<stop offset="0.5" stop-color="#333132"/>
<stop offset="1" stop-color="#89878A"/>
</linearGradient>
<linearGradient id="paint2_linear_15_7" x1="98.2878" y1="21.993" x2="149.603" y2="21.993" gradientUnits="userSpaceOnUse">
<stop stop-color="#477637"/>
<stop offset="1" stop-color="#68AC44"/>
</linearGradient>
<linearGradient id="paint3_linear_15_7" x1="123.945" y1="58.7167" x2="0.442641" y2="58.7167" gradientUnits="userSpaceOnUse">
<stop stop-color="#477637"/>
<stop offset="1" stop-color="#68AC44"/>
</linearGradient>
<linearGradient id="paint4_linear_15_7" x1="55.1964" y1="81.0658" x2="98.8629" y2="107.577" gradientUnits="userSpaceOnUse">
<stop offset="0.5" stop-color="#333132"/>
<stop offset="1" stop-color="#89878A"/>
</linearGradient>
<linearGradient id="paint5_linear_15_7" x1="98.545" y1="98.3265" x2="148.923" y2="97.0603" gradientUnits="userSpaceOnUse">
<stop stop-color="#477637"/>
<stop offset="1" stop-color="#68AC44"/>
</linearGradient>
<linearGradient id="paint6_linear_15_7" x1="12.3741" y1="149.717" x2="26.4176" y2="149.364" gradientUnits="userSpaceOnUse">
<stop stop-color="#477637"/>
<stop offset="1" stop-color="#68AC44"/>
</linearGradient>
<clipPath id="clip0_15_7">
<rect width="195" height="166" fill="white"/>
</clipPath>
</defs>
</svg>
